<svg width="20" height="20" viewBox="0 0 20 20" fill="none" xmlns="http://www.w3.org/2000/svg">
<g clip-path="url(#clip0_636_839)">
<path d="M10 0C8.02219 0 6.08879 0.58649 4.4443 1.6853C2.79981 2.78412 1.51809 4.3459 0.761209 6.17317C0.00433286 8.00043 -0.193701 10.0111 0.192152 11.9509C0.578004 13.8907 1.53041 15.6725 2.92894 17.0711C4.32746 18.4696 6.10929 19.422 8.0491 19.8079C9.98891 20.1937 11.9996 19.9957 13.8268 19.2388C15.6541 18.4819 17.2159 17.2002 18.3147 15.5557C19.4135 13.9112 20 11.9778 20 10C19.9971 7.34872 18.9426 4.80684 17.0679 2.9321C15.1932 1.05736 12.6513 0.00286757 10 0ZM10 18.3333C8.35183 18.3333 6.74066 17.8446 5.37025 16.9289C3.99984 16.0132 2.93174 14.7117 2.30101 13.189C1.67028 11.6663 1.50525 9.99076 1.82679 8.37425C2.14834 6.75774 2.94201 5.27288 4.10745 4.10744C5.27289 2.94201 6.75774 2.14833 8.37425 1.82679C9.99076 1.50525 11.6663 1.67027 13.189 2.301C14.7118 2.93173 16.0132 3.99984 16.9289 5.37025C17.8446 6.74066 18.3333 8.35182 18.3333 10C18.3309 12.2094 17.4522 14.3276 15.8899 15.8899C14.3276 17.4522 12.2094 18.3309 10 18.3333Z" fill="#99ECFF"/>
<path d="M13.4776 8.58334L9.21675 5.91667C8.96423 5.75884 8.67402 5.67155 8.37633 5.66388C8.07864 5.65621 7.78433 5.72845 7.52401 5.87307C7.26369 6.01769 7.04688 6.22941 6.89612 6.48622C6.74536 6.74303 6.66615 7.03554 6.66675 7.33334V12.6667C6.66615 12.9645 6.74536 13.257 6.89612 13.5138C7.04688 13.7706 7.26369 13.9823 7.52401 14.1269C7.78433 14.2716 8.07864 14.3438 8.37633 14.3361C8.67402 14.3285 8.96423 14.2412 9.21675 14.0833L13.4776 11.4167C13.7173 11.2669 13.915 11.0585 14.052 10.8113C14.189 10.564 14.2609 10.286 14.2609 10.0033C14.2609 9.72066 14.189 9.44263 14.052 9.19539C13.915 8.94815 13.7173 8.73982 13.4776 8.59V8.58334ZM8.33342 12.6667V7.33334L12.5943 10L8.33342 12.6667Z" fill="#99ECFF"/>
</g>
<defs>
<clipPath id="clip0_636_839">
<rect width="20" height="20" fill="white"/>
</clipPath>
</defs>
</svg>
